<?xml version="1.0" encoding="utf-8"?>
<!-- Generator: Adobe Illustrator 19.0.0, SVG Export Plug-In . SVG Version: 6.00 Build 0)  -->
<svg version="1.1" id="Layer_1" xmlns="http://www.w3.org/2000/svg" xmlns:xlink="http://www.w3.org/1999/xlink" x="0px" y="0px"
	 viewBox="0 0 226.8 226.8" xml:space="preserve">
<style type="text/css">
	.st0{fill:#000000;}
</style>
<g id="XMLID_1_">
	<path id="XMLID_12_" class="st0" d="M226.8,25.8c0,49.6,0,99.2,0,148.9c-18.4,8.5-36.8,17-55.1,25.4c0-32.5,0-65,0-97.5
		c-19.4,8.7-38.8,17.4-58.2,26.2c0-17,0-34.1,0-51.1C151.2,60.4,189,43.1,226.8,25.8z"/>
	<polygon id="XMLID_15_" class="st0" points="59.9,0 5.7,23.3 59.9,48 114.4,23.3 	"/>
	<polygon id="XMLID_19_" class="st0" points="60.2,151.1 60.2,202.6 113.3,226.8 113.3,175.1 	"/>
	<polygon id="XMLID_18_" class="st0" points="166.3,151.1 166.3,202.6 113.3,226.8 113.3,175.1 	"/>
	<polygon id="XMLID_33_" class="st0" points="0,25.8 0,174.7 55.1,200.1 55.1,51 	"/>
	<polygon id="XMLID_35_" class="st0" points="60.2,53.5 60.2,104.9 113.5,128.8 113.5,77.5 	"/>
</g>
</svg>
